<?xml version="1.0" encoding="UTF-8" standalone="no"?>
<svg
   version="1.1"
   viewBox="0 0 97 97"
   xml:space="preserve"
   id="svg2"
   sodipodi:docname="logo.svg"
   inkscape:version="1.4 (e7c3feb100, 2024-10-09)"
   xmlns:inkscape="http://www.inkscape.org/namespaces/inkscape"
   xmlns:sodipodi="http://sodipodi.sourceforge.net/DTD/sodipodi-0.dtd"
   xmlns="http://www.w3.org/2000/svg"
   xmlns:svg="http://www.w3.org/2000/svg"><defs
   id="defs2" /><sodipodi:namedview
   id="namedview2"
   pagecolor="#505050"
   bordercolor="#ffffff"
   borderopacity="1"
   inkscape:showpageshadow="0"
   inkscape:pageopacity="0"
   inkscape:pagecheckerboard="1"
   inkscape:deskcolor="#505050"
   inkscape:zoom="11.948454"
   inkscape:cx="48.625538"
   inkscape:cy="48.416306"
   inkscape:window-width="2560"
   inkscape:window-height="1368"
   inkscape:window-x="0"
   inkscape:window-y="0"
   inkscape:window-maximized="1"
   inkscape:current-layer="svg2" /><script
   id="script1" /><div
   id="__jumpCutterBridgeElement" />
  
<path
   d="m92.71 44.408-40.119-40.117c-2.31-2.311-6.057-2.311-8.369 0l-8.33 8.332v4.092h-4.094l-27.51 27.507c-2.311 2.313-2.311 6.06 0 8.371l40.121 40.118c2.31 2.311 6.056 2.311 8.369 0l39.932-39.932c2.311-2.311 2.311-6.06 0-8.371z"
   fill="#609926"
   id="path1"
   style="fill:#677e8d;fill-opacity:1" /><path
   d="m44.2227 4.29102c-4.14072 4.14159-8.28256 8.28277-12.4238 12.4238l10.416 10.4199c-1.068 2.558-0.567373 5.61527 1.51562 7.69726 0.681999 0.684 1.46664 1.19311 2.30664 1.53711v25.2305c-0.839999 0.344-1.62664 0.85811-2.30664 1.53711-2.75 2.749-2.75 7.20499 0 9.95898 2.748 2.749 7.20703 2.749 9.95703 0 2.75-2.753 2.75-7.20899 0-9.95898-0.557999-0.558-1.19133-1.00003-1.86133-1.33203v-24.998l9.5 9.5c-1.049 2.548-0.536748 5.5882 1.53125 7.6582 2.753 2.751 7.20894 2.751 9.96094 0 2.75-2.752 2.75-7.20899 0-9.95898-1.968-1.971-4.80844-2.51992-7.27344-1.66992l-10.1875-10.1855c0.850999-2.465 0.299076-5.30539-1.66992-7.27539-1.957-1.958-4.77252-2.51555-7.22852-1.68555l-10.5664-10.5664z"
   fill="#fff"
   id="path2" /></svg>
